<svg xmlns="http://www.w3.org/2000/svg" width="615" height="523" viewBox="0 0 615 523"><defs><style>.a{fill:#040404;}.a,.c{stroke:#707070;}.b,.g{fill:none;}.b{stroke:#000;stroke-linecap:round;stroke-width:16px;}.c,.e{fill:#3a5169;}.d{fill:#42b983;}.f{stroke:none;}</style></defs><g transform="translate(-615.5 -199.5)"><g class="a" transform="translate(700 276)"><rect class="f" width="446" height="362" rx="23"/><rect class="g" x="0.5" y="0.5" width="445" height="361" rx="22.5"/></g><line class="b" y2="55" transform="translate(819.5 228.5)"/><line class="b" y2="55" transform="translate(1017.5 228.5)"/><line class="b" y2="76" transform="translate(885.5 207.5)"/><line class="b" y2="76" transform="translate(951.5 207.5)"/><line class="b" y2="50" transform="translate(819.5 638.5)"/><line class="b" y2="76" transform="translate(1017.5 638.5)"/><line class="b" y2="76" transform="translate(885.5 638.5)"/><line class="b" y2="43" transform="translate(951.5 638.5)"/><g transform="translate(770 1770) rotate(-90)"><path class="b" d="M0,0V41.489" transform="translate(1229.5 376.5)"/><line class="b" y2="38" transform="translate(1427.5 376.5)"/><line class="b" y2="76" transform="translate(1295.5 376.5)"/><line class="b" y2="76" transform="translate(1361.5 376.5)"/></g><g transform="translate(247 1770) rotate(-90)"><line class="b" y2="51" transform="translate(1229.5 401.5)"/><line class="b" y2="51" transform="translate(1427.5 401.5)"/><line class="b" y2="76" transform="translate(1295.5 376.5)"/><line class="b" y2="76" transform="translate(1361.5 376.5)"/></g><g class="c" transform="translate(752 327)"><rect class="f" width="343" height="260" rx="15"/><rect class="g" x="0.5" y="0.5" width="342" height="259" rx="14.5"/></g><g transform="translate(-11 -32)"><path class="d" d="M33.668,45.1c1.9-9.694,15.766-9.694,17.664,0l1.356,6.922a9,9,0,0,0,1.882,3.988l9.476,11.519C69.867,74.6,62.621,84.838,54.011,81.7l-8.427-3.073a9,9,0,0,0-6.167,0L30.989,81.7c-8.61,3.14-15.856-7.1-10.034-14.173L30.43,56.006a9,9,0,0,0,1.882-3.988Z" transform="translate(847.516 584.333) rotate(-173)"/><path class="d" d="M33.668,45.1c1.9-9.694,15.766-9.694,17.664,0l1.356,6.922a9,9,0,0,0,1.882,3.988l9.476,11.519C69.867,74.6,62.621,84.838,54.011,81.7l-8.427-3.073a9,9,0,0,0-6.167,0L30.989,81.7c-8.61,3.14-15.856-7.1-10.034-14.173L30.43,56.006a9,9,0,0,0,1.882-3.988Z" transform="translate(864.592 532.536) rotate(169)"/><path class="d" d="M33.668,45.1c1.9-9.694,15.766-9.694,17.664,0l1.356,6.922a9,9,0,0,0,1.882,3.988l9.476,11.519C69.867,74.6,62.621,84.838,54.011,81.7l-8.427-3.073a9,9,0,0,0-6.167,0L30.989,81.7c-8.61,3.14-15.856-7.1-10.034-14.173L30.43,56.006a9,9,0,0,0,1.882-3.988Z" transform="translate(838.615 620.962) rotate(-172)"/><path class="d" d="M33.668,45.1c1.9-9.694,15.766-9.694,17.664,0l1.356,6.922a9,9,0,0,0,1.882,3.988l9.476,11.519C69.867,74.6,62.621,84.838,54.011,81.7l-8.427-3.073a9,9,0,0,0-6.167,0L30.989,81.7c-8.61,3.14-15.856-7.1-10.034-14.173L30.43,56.006a9,9,0,0,0,1.882-3.988Z" transform="translate(859.487 496.837) rotate(166)"/><path class="d" d="M33.668,45.1c1.9-9.694,15.766-9.694,17.664,0l1.356,6.922a9,9,0,0,0,1.882,3.988l9.476,11.519C69.867,74.6,62.621,84.838,54.011,81.7l-8.427-3.073a9,9,0,0,0-6.167,0L30.989,81.7c-8.61,3.14-15.856-7.1-10.034-14.173L30.43,56.006a9,9,0,0,0,1.882-3.988Z" transform="matrix(-1, -0.017, 0.017, -1, 838.682, 475.235)"/></g><g transform="translate(7 -15)"><path class="d" d="M33.668,45.1c1.9-9.694,15.766-9.694,17.664,0l1.356,6.922a9,9,0,0,0,1.882,3.988l9.476,11.519C69.867,74.6,62.621,84.838,54.011,81.7l-8.427-3.073a9,9,0,0,0-6.167,0L30.989,81.7c-8.61,3.14-15.856-7.1-10.034-14.173L30.43,56.006a9,9,0,0,0,1.882-3.988Z" transform="translate(1079.516 508.333) rotate(-173)"/><path class="d" d="M33.668,45.1c1.9-9.694,15.766-9.694,17.664,0l1.356,6.922a9,9,0,0,0,1.882,3.988l9.476,11.519C69.867,74.6,62.621,84.838,54.011,81.7l-8.427-3.073a9,9,0,0,0-6.167,0L30.989,81.7c-8.61,3.14-15.856-7.1-10.034-14.173L30.43,56.006a9,9,0,0,0,1.882-3.988Z" transform="translate(1096.592 455.536) rotate(169)"/><path class="d" d="M33.668,45.1c1.9-9.694,15.766-9.694,17.664,0l1.356,6.922a9,9,0,0,0,1.882,3.988l9.476,11.519C69.867,74.6,62.621,84.838,54.011,81.7l-8.427-3.073a9,9,0,0,0-6.167,0L30.989,81.7c-8.61,3.14-15.856-7.1-10.034-14.173L30.43,56.006a9,9,0,0,0,1.882-3.988Z" transform="translate(1069.615 583.962) rotate(-172)"/><path class="d" d="M33.668,45.1c1.9-9.694,15.766-9.694,17.664,0l1.356,6.922a9,9,0,0,0,1.882,3.988l9.476,11.519C69.867,74.6,62.621,84.838,54.011,81.7l-8.427-3.073a9,9,0,0,0-6.167,0L30.989,81.7c-8.61,3.14-15.856-7.1-10.034-14.173L30.43,56.006a9,9,0,0,0,1.882-3.988Z" transform="translate(1096.487 603.837) rotate(166)"/><path class="d" d="M33.668,45.1c1.9-9.694,15.766-9.694,17.664,0l1.356,6.922a9,9,0,0,0,1.882,3.988l9.476,11.519C69.867,74.6,62.621,84.838,54.011,81.7l-8.427-3.073a9,9,0,0,0-6.167,0L30.989,81.7c-8.61,3.14-15.856-7.1-10.034-14.173L30.43,56.006a9,9,0,0,0,1.882-3.988Z" transform="matrix(-1, -0.017, 0.017, -1, 1080.682, 542.235)"/></g><g transform="translate(7 2)"><ellipse class="d" cx="65.5" cy="27" rx="65.5" ry="27" transform="translate(836 414)"/><path class="d" d="M30.27,18.439a6,6,0,0,1,11.459,0L50.8,47.634a6,6,0,0,0,.343.862L67,80.808a6,6,0,0,1-6.237,8.582L36.851,85.965a6,6,0,0,0-1.7,0L11.238,89.39A6,6,0,0,1,5,80.808L20.855,48.5a6,6,0,0,0,.343-.863Z" transform="translate(911.5 477.5) rotate(-90)"/><ellipse class="e" cx="7" cy="6.5" rx="7" ry="6.5" transform="translate(861 425)"/><path class="d" d="M20.857,8.029a4,4,0,0,1,7.285,0L46.435,48.347A4,4,0,0,1,42.793,54H6.207a4,4,0,0,1-3.643-5.653Z" transform="translate(933.993 381.628) rotate(47)"/><path class="d" d="M15.83,8.47a4,4,0,0,1,7.34,0L36.577,39.41A4,4,0,0,1,32.907,45H6.093a4,4,0,0,1-3.67-5.59Z" transform="translate(927.411 428.766) rotate(47)"/></g></g></svg>